<svg width="691" height="270" viewBox="0 0 691 270" fill="none" xmlns="http://www.w3.org/2000/svg">
<rect x="30" y="50" width="170" height="170" rx="85" fill="#E480D8"/>
<g filter="url(#filter0_i_4_18)">
<path d="M77.1763 153.75L115 95.7965L152.824 153.75H77.1763Z" stroke="white" stroke-width="20"/>
</g>
<path d="M238.672 204.5H214.648V71.1992H269.238C284.798 71.1992 296.322 75.138 303.809 83.0156C311.361 90.8281 315.137 100.073 315.137 110.75C315.137 122.924 311.068 132.788 302.93 140.34C294.792 147.892 284.473 151.668 271.973 151.668H238.672V204.5ZM238.672 131.062H267.09C274.512 131.062 280.176 129.24 284.082 125.594C287.988 121.948 289.941 117.098 289.941 111.043C289.941 105.574 288.118 100.887 284.473 96.9805C280.892 93.0742 274.382 91.1211 264.941 91.1211H238.672V131.062ZM345.566 204.5H323.301V105.867H343.418V129.402C346.283 120.223 350.221 113.517 355.234 109.285C360.247 105.053 365.391 102.938 370.664 102.938C371.38 102.938 372.357 102.97 373.594 103.035V126.961C362.266 126.961 354.746 130.574 351.035 137.801C347.389 145.027 345.566 152.026 345.566 158.797V204.5ZM406.719 181.844L427.617 177.84C430.807 185.848 437.839 189.852 448.711 189.852C462.513 189.852 469.414 185.783 469.414 177.645C469.414 175.04 468.34 172.892 466.191 171.199C464.043 169.507 461.504 168.367 458.574 167.781L440.605 164.363C420.684 160.522 410.723 150.789 410.723 135.164C410.723 126.44 413.88 119.051 420.195 112.996C426.51 106.876 435.918 103.816 448.418 103.816C469.251 103.816 481.979 111.466 486.602 126.766L466.777 130.77C464.694 123.348 458.77 119.637 449.004 119.637C437.155 119.637 431.23 123.348 431.23 130.77C431.23 135.913 436.016 139.461 445.586 141.414L466.777 145.809C483.249 149.194 491.484 158.634 491.484 174.129C491.484 185.001 487.253 193.139 478.789 198.543C470.326 203.882 460.267 206.551 448.613 206.551C438.522 206.551 429.603 204.533 421.855 200.496C414.108 196.395 409.062 190.177 406.719 181.844ZM646.816 204.5H623.477V143.074C623.477 130.314 617.812 123.934 606.484 123.934C599.909 123.934 594.635 126.342 590.664 131.16C586.758 135.978 584.805 143.172 584.805 152.742V204.5H561.172V143.074C561.172 130.118 555.866 123.641 545.254 123.641C538.809 123.641 533.372 126.245 528.945 131.453C524.583 136.661 522.402 143.758 522.402 152.742V204.5H499.453V105.867H521.035V126.863C528.066 111.499 539.036 103.816 553.945 103.816C568.464 103.816 577.904 111.499 582.266 126.863C590.208 111.499 601.178 103.816 615.176 103.816C624.681 103.816 632.331 106.779 638.125 112.703C643.919 118.628 646.816 125.984 646.816 134.773V204.5Z" fill="black"/>
<path d="M401.875 94.3438H379.609V71.1992H401.875V94.3438ZM401.875 204.5H379.609V105.867H401.875V204.5Z" fill="#E480D8"/>
<defs>
<filter id="filter0_i_4_18" x="58.7083" y="77.5" width="112.583" height="86.25" filterUnits="userSpaceOnUse" color-interpolation-filters="sRGB">
<feFlood flood-opacity="0" result="BackgroundImageFix"/>
<feBlend mode="normal" in="SourceGraphic" in2="BackgroundImageFix" result="shape"/>
<feColorMatrix in="SourceAlpha" type="matrix" values="0 0 0 0 0 0 0 0 0 0 0 0 0 0 0 0 0 0 127 0" result="hardAlpha"/>
<feOffset dy="4"/>
<feComposite in2="hardAlpha" operator="arithmetic" k2="-1" k3="1"/>
<feColorMatrix type="matrix" values="0 0 0 0 0.629167 0 0 0 0 0.629167 0 0 0 0 0.629167 0 0 0 0.25 0"/>
<feBlend mode="normal" in2="shape" result="effect1_innerShadow_4_18"/>
</filter>
</defs>
</svg>
